<svg width="28" height="34" viewBox="0 0 28 34" fill="none" xmlns="http://www.w3.org/2000/svg">
<g id="SVGRepo_iconCarrier">
<path id="Vector" d="M14.75 9.56198C14.5061 9.52106 14.2556 9.49976 14 9.49976C11.5146 9.49976 9.5 11.5145 9.5 13.9998C9.5 16.4851 11.5146 18.4998 14 18.4998C16.4854 18.4998 18.5 16.4851 18.5 13.9998C18.5 13.7442 18.4787 13.4937 18.4377 13.2498" stroke="#F8FAFC" stroke-width="4" stroke-linecap="round"/>
<path id="Vector_2" d="M3.5 21.8241C2.52881 19.3433 2 16.702 2 14.215C2 7.46882 7.37258 2 14 2C20.6275 2 26 7.46882 26 14.215C26 20.9083 22.1701 28.7186 16.1944 31.5116C14.8015 32.1628 13.1985 32.1628 11.8056 31.5116C9.89711 30.6196 8.20746 29.2159 6.79157 27.5" stroke="#F8FAFC" stroke-width="4" stroke-linecap="round"/>
</g>
</svg>
