<svg width="64" height="64" viewBox="0 0 64 64" fill="none" xmlns="http://www.w3.org/2000/svg">
<g id="Layer_1">
<g id="SVGRepo_iconCarrier">
<path id="Vector" d="M32.2461 39.8311L51.0635 62.9787H55.1486C55.1485 50.2753 44.9181 39.9632 32.2461 39.8311Z" fill="#007153"/>
<path id="Vector_2" d="M32.2464 39.8311C42.6621 39.9918 51.0638 50.2931 51.0638 62.9788H8.85107C8.85107 50.1938 19.215 39.8299 32 39.8299C32.0817 39.8298 32.1647 39.8298 32.2464 39.8311Z" fill="#00997B"/>
<path id="Vector_3" d="M46.3333 50.2075C45.2739 51.6672 43.9979 52.9581 42.5518 54.0352L36.3955 55.032L39.0413 45.9385L46.3333 50.2075Z" fill="#007153"/>
<g id="Group">
<path id="Vector_4" d="M32.1758 1.02271L43.1265 50.0236C44.1792 50.1448 45.2494 50.2075 46.3333 50.2075C48.4522 47.2907 49.7022 43.704 49.7022 39.83V18.7235C49.7023 9.02133 41.8562 1.11671 32.1758 1.02271Z" fill="#08AD8F"/>
<path id="Vector_5" d="M40.4808 53.6702L32.1758 57.5305C36.0594 57.4938 39.6474 56.1988 42.5519 54.035C41.8534 53.9398 41.163 53.8173 40.4808 53.6702Z" fill="#08AD8F"/>
<path id="Vector_6" d="M32.1756 1.02262C32.1171 1.02124 32.0585 1.02124 32 1.02124C22.2394 1.02124 14.2979 8.96274 14.2979 18.7234V39.8297C14.2979 49.5904 22.2394 57.5319 32 57.5319C32.0585 57.5319 32.1171 57.5319 32.1756 57.5305C35.3116 57.4787 38.1944 56.0421 40.4806 53.6701L45.617 18.7234C45.617 9.03899 39.6037 1.14524 32.1756 1.02262Z" fill="#08AD8F"/>
</g>
<path id="Vector_7" d="M18.3828 22.1277V26.2128C18.3828 39.6324 27.8712 50.9508 40.4806 53.6702C41.4882 52.6244 42.3814 51.3962 43.1263 50.0236L18.3828 22.1277Z" fill="#00997B"/>
<g id="Group_2">
<path id="Vector_8" d="M18.3828 22.1277C18.3828 36.4704 29.2219 48.4126 43.1263 50.0236C44.6949 47.1394 45.6168 43.6222 45.6168 39.8298V22.1277H18.3828Z" fill="#57E1C8"/>
<path id="Vector_9" d="M32 5.10645V21.4468L44.9934 14.6383C43.2585 9.11395 38.0978 5.10645 32 5.10645Z" fill="#57E1C8"/>
</g>
<path id="Vector_10" d="M41.0946 14.6383L30.0505 22.8086L19.0063 14.6383C20.7413 9.11395 25.9021 5.10645 31.9998 5.10645C36.2675 5.10645 39.8813 9.11395 41.0946 14.6383Z" fill="#7FFFF0"/>
<path id="Vector_11" d="M44.9934 14.6382H41.0949L32 35.7446C39.5206 35.7446 45.617 29.6482 45.617 22.1276V18.7233C45.617 17.3003 45.3991 15.9278 44.9934 14.6382Z" fill="#E5D0CE"/>
<path id="Vector_12" d="M41.5317 18.7233V22.1276C41.5317 29.6482 37.2641 35.7446 31.9998 35.7446C24.4792 35.7446 18.3828 29.6482 18.3828 22.1276V18.7233C18.3828 17.3003 18.6007 15.9277 19.0064 14.6382H41.0946C41.3792 15.9278 41.5317 17.3003 41.5317 18.7233Z" fill="#F9E4E2"/>
<path id="Vector_13" d="M25.6677 19.7446H27.428C27.5681 20.1413 27.9465 20.4255 28.3911 20.4255C28.9552 20.4255 29.4124 19.9683 29.4124 19.4043V18.7234C29.4124 18.1594 28.9552 17.7021 28.3911 17.7021H25.6677C25.1036 17.7021 24.6465 18.1594 24.6465 18.7234C24.6465 19.2874 25.1035 19.7446 25.6677 19.7446Z" fill="black"/>
<path id="Vector_14" d="M35.6082 20.4255C36.0529 20.4255 36.4312 20.1414 36.5713 19.7446H38.3315C38.8957 19.7446 39.3528 19.2874 39.3528 18.7234C39.3528 18.1594 38.8957 17.7021 38.3315 17.7021H35.6082C35.044 17.7021 34.5869 18.1594 34.5869 18.7234V19.4043C34.5869 19.9683 35.044 20.4255 35.6082 20.4255Z" fill="black"/>
<path id="Vector_15" d="M28.7908 25.1931C29.2723 26.5479 30.5619 27.458 31.9998 27.458C33.4376 27.458 34.7273 26.5479 35.2088 25.1931C35.3978 24.6616 35.1201 24.0777 34.5885 23.8887C34.0574 23.7001 33.4731 23.9775 33.2843 24.509C33.0914 25.0512 32.5753 25.4155 31.9996 25.4155C31.424 25.4155 30.9078 25.0512 30.715 24.509C30.5261 23.9775 29.9418 23.7002 29.4108 23.8887C28.8794 24.0777 28.6018 24.6616 28.7908 25.1931Z" fill="black"/>
<path id="Vector_16" d="M49.5481 46.3585C50.3072 44.3246 50.7232 42.1251 50.7232 39.8299V18.7234C50.7232 8.39925 42.3238 0 31.9998 0C21.6758 0 13.2765 8.39925 13.2765 18.7234V39.8298C13.2765 42.1249 13.6925 44.3246 14.4516 46.3582C10.1763 50.8657 7.82959 56.741 7.82959 62.9786C7.82959 63.5426 8.28671 63.9999 8.85084 63.9999C9.41496 63.9999 9.87209 63.5426 9.87209 62.9786C9.87209 57.5566 11.8095 52.4342 15.3552 48.3984C18.47 54.4241 24.7615 58.5531 31.9997 58.5531C38.2061 58.5531 43.7158 55.517 47.1245 50.8527C47.1467 50.8256 47.1672 50.7972 47.1865 50.7677C47.7285 50.0175 48.2165 49.2259 48.6443 48.3983C52.1901 52.4344 54.1275 57.5566 54.1275 62.9786C54.1275 63.5426 54.5846 63.9999 55.1487 63.9999C55.7128 63.9999 56.17 63.5426 56.17 62.9786C56.1701 56.741 53.8233 50.8659 49.5481 46.3585ZM31.9998 56.5106C25.0648 56.5106 19.1055 52.2561 16.5926 46.2205C16.5907 46.2158 16.5887 46.2111 16.5867 46.2064C15.7705 44.2409 15.3188 42.0872 15.3188 39.8298V18.7234C15.319 9.5255 22.802 2.0425 31.9998 2.0425C41.1977 2.0425 48.6807 9.5255 48.6807 18.7234V39.8298C48.6807 42.0874 48.2288 44.2412 47.4126 46.2069C47.4108 46.2113 47.409 46.2156 47.4073 46.22C46.9727 47.264 46.4355 48.2549 45.8073 49.1796C34.6916 48.9645 25.204 41.949 21.3036 32.1096C23.9773 34.9728 27.7828 36.766 31.9998 36.766C40.0713 36.766 46.6381 30.1994 46.6381 22.1278V18.7235C46.6381 17.2606 46.416 15.8194 45.9951 14.4425C45.9823 14.3764 45.963 14.3126 45.9381 14.2517C45.3383 12.3816 44.3645 10.6369 43.0576 9.13163C40.7722 6.49913 37.6246 4.76538 34.1945 4.24925C33.6366 4.16512 33.1165 4.54938 33.0325 5.10725C32.9486 5.665 33.3327 6.18512 33.8905 6.269C38.2137 6.91937 41.7816 9.79712 43.4962 13.6171H20.5037C22.2182 9.79712 25.7861 6.91937 30.1095 6.269C30.6672 6.18512 31.0513 5.665 30.9675 5.10725C30.8836 4.5495 30.3646 4.16512 29.8055 4.24925C26.3755 4.76538 23.2276 6.49925 20.9423 9.13163C19.6353 10.6369 18.6616 12.3818 18.0618 14.2519C18.037 14.3127 18.0176 14.3765 18.0048 14.4426C17.5838 15.8196 17.3618 17.2607 17.3618 18.7236V22.1279C17.3618 29.867 20.3785 37.1636 25.8561 42.6735C30.8416 47.6884 37.304 50.6546 44.2368 51.1533C41.1876 54.4458 36.8306 56.5106 31.9998 56.5106ZM44.5956 18.7234V22.1276C44.5956 29.073 38.9452 34.7234 31.9998 34.7234C25.0545 34.7234 19.4041 29.073 19.4041 22.1276V18.7234C19.4041 17.6719 19.5401 16.6454 19.7912 15.6595H44.2085C44.4596 16.6455 44.5956 17.6719 44.5956 18.7234Z" fill="black"/>
<path id="Vector_17" d="M37.7869 43.5745C38.3509 43.5745 38.8081 43.1173 38.8081 42.5532C38.8081 41.9892 38.3509 41.532 37.7869 41.532C37.2229 41.532 36.7656 41.9892 36.7656 42.5532C36.7656 43.1173 37.2229 43.5745 37.7869 43.5745Z" fill="black"/>
<path id="Vector_18" d="M41.8723 39.4893C42.4363 39.4893 42.8936 39.032 42.8936 38.468C42.8936 37.904 42.4363 37.4468 41.8723 37.4468C41.3083 37.4468 40.8511 37.904 40.8511 38.468C40.8511 39.032 41.3083 39.4893 41.8723 39.4893Z" fill="black"/>
</g>
</g>
</svg>
