<svg width="64" height="64" viewBox="0 0 64 64" fill="none" xmlns="http://www.w3.org/2000/svg">
<g id="Layer_1">
<g id="SVGRepo_iconCarrier">
<path id="Vector" d="M59.1368 0V49.9929L11.866 56.094L4.86328 56.9971V7.00275C4.86328 5.06938 5.64728 3.3195 6.91428 2.051C8.18278 0.784 9.93266 0 11.866 0H59.1368Z" fill="#B3B3B3"/>
<path id="Vector_2" d="M11.866 0V56.094L4.86328 56.9971V7.00275C4.86328 5.06938 5.64728 3.3195 6.91428 2.051C8.18278 0.784 9.93266 0 11.866 0Z" fill="#999999"/>
<path id="Vector_3" d="M14.7124 64H11.8665C9.93314 64 8.18327 63.216 6.91477 61.949C5.64777 60.6805 4.86377 58.929 4.86377 56.9957C4.86377 53.1289 7.99977 49.9929 11.8665 49.9929H53.886H59.1373V64H24.7476" fill="#F3F4F6"/>
<path id="Vector_4" d="M53.8856 49.9929V59.1642H8.83984V50.6782C9.75559 50.2392 10.7826 49.9929 11.8661 49.9929H53.8856Z" fill="#E6E6E6"/>
<path id="Vector_5" d="M53.8856 49.9929V52.3967H11.8661C10.7826 52.3967 9.75559 52.6428 8.83984 53.0819V50.6782C9.75559 50.2392 10.7826 49.9929 11.8661 49.9929H53.8856Z" fill="#CCCCCC"/>
<path id="Vector_6" d="M53.6349 38.7671V10.9475C50.6119 10.9475 48.1613 8.49688 48.1613 5.47388H23.0928C23.0928 8.49688 20.6421 10.9475 17.6191 10.9475V38.7671C20.6421 38.7671 23.0928 41.2178 23.0928 44.2408H48.1613C48.1611 41.2178 50.6118 38.7671 53.6349 38.7671Z" fill="#F3F4F6"/>
<g id="Group">
<path id="Vector_7" d="M39.9715 14.5625L41.5793 17.82L45.1743 18.3422L42.5729 20.8779L43.1869 24.4583L39.9715 22.7679L36.7563 24.4583L37.3704 20.8779L34.769 18.3422L38.3639 17.82L39.9715 14.5625Z" fill="#08AD8F"/>
<path id="Vector_8" d="M39.6604 29.6138C34.3729 29.6138 30.0864 25.3273 30.0864 20.0398C30.0864 17.0986 31.4131 14.4676 33.5003 12.7114C27.4215 13.3978 22.6973 18.5557 22.6973 24.8179C22.6973 31.5476 28.1526 37.0029 34.8823 37.0029C41.1444 37.0029 46.3024 32.2787 46.9888 26.1999C45.2325 28.2872 42.6015 29.6138 39.6604 29.6138Z" fill="#08AD8F"/>
</g>
</g>
</g>
</svg>
