<svg width="64" height="64" viewBox="0 0 64 64" fill="none" xmlns="http://www.w3.org/2000/svg">
<g id="Layer_1" clip-path="url(#clip0_155_400)">
<g id="SVGRepo_iconCarrier">
<g id="Group">
<path id="Vector" d="M40.5487 57.0093C39.3564 58.635 38.1643 60.8027 37.4055 63.4039H31.9863C31.9863 63.4039 36.2134 59.177 40.5487 57.0093Z" fill="#08AD8F"/>
<path id="Vector_2" d="M47.1597 36.3083H47.4849C45.8591 47.3633 41.849 52.5657 31.9861 52.5657C22.1232 52.5657 18.2215 47.3633 16.4873 36.3083H16.8125C18.9803 38.4758 24.3993 40.6435 24.3993 40.6435C24.3993 40.6435 25.4831 35.2244 28.7346 35.2244H35.2376C38.4891 35.2244 39.5728 40.6435 39.5728 40.6435C39.5728 40.6435 44.9921 38.4758 47.1597 36.3083Z" fill="#334155"/>
<g id="Group_2">
<path id="Vector_3" d="M44.992 63.404H37.4053C38.1639 60.6944 39.3562 58.6351 40.5484 57.0093C42.7161 53.9747 44.9922 52.6741 44.9922 52.6741C60.1658 52.6741 61.3579 56.0339 62.3334 59.177L63.4171 63.5123H44.992V63.404Z" fill="#08AD8F"/>
<path id="Vector_4" d="M33.2867 12.464C26.3503 14.9568 21.473 18.0999 18.6551 20.5927L16.8125 17.9915C16.8125 17.9915 26.1335 6.06937 43.4747 3.9018L43.583 3.79346C51.4949 7.37009 54.7464 13.3311 54.7464 20.1592C54.7464 26.6622 52.0369 30.9975 52.0369 30.9975C52.0369 30.9975 50.086 33.4903 47.9183 34.2489H47.8099C48.0267 32.6232 48.1351 30.7806 48.3519 28.8298V24.4945C48.2436 22.2184 43.9082 14.6317 33.2867 12.464Z" fill="#08AD8F"/>
<path id="Vector_5" d="M16.0542 34.249C13.2362 33.1652 11.9356 30.8891 11.9356 30.8891C11.9356 30.8891 9.22607 26.5539 9.22607 20.0509C9.22607 10.5133 15.729 2.70969 31.9865 0.541992C36.6469 1.19229 40.4403 2.27607 43.5835 3.68514L43.4751 3.79348C26.1338 5.96105 16.8128 17.8832 16.8128 17.8832L18.6554 20.4844C16.7045 22.2185 15.729 23.6275 15.729 24.3862V26.5539V28.7216C15.8374 30.6725 16.0542 32.515 16.271 34.2491L16.0542 34.249Z" fill="#08AD8F"/>
<path id="Vector_6" d="M29.7102 63.4039H0.555176L1.63896 59.0686C2.72275 55.8172 5.97423 52.5657 14.6449 52.5657C20.0641 52.5657 25.4831 55.8172 28.7346 61.2363L29.7101 63.1872V63.4039H29.7102Z" fill="#08AD8F"/>
</g>
<path id="Vector_7" d="M48.2437 24.3863V28.7215C48.1353 30.6724 47.9185 32.4065 47.8102 34.1407C47.7018 34.8993 47.5934 35.6581 47.485 36.4168H47.1599C44.9922 38.5845 39.5731 40.752 39.5731 40.752C39.5731 40.752 38.4893 35.3328 35.2379 35.3328H28.7349C25.4834 35.3328 24.3996 40.752 24.3996 40.752C24.3996 40.752 18.9804 38.5843 16.8129 36.4168H16.4877C16.3794 35.7665 16.2709 35.0078 16.1626 34.2491C15.9458 32.515 15.8374 30.6724 15.6206 28.8299V26.6623V24.4946C15.6206 23.8443 16.5961 22.3269 18.5469 20.5928C21.3649 18.1 26.1337 14.957 33.1786 12.4641C43.9083 14.6318 48.2437 22.2186 48.2437 24.3863Z" fill="#FFD0A1"/>
</g>
<path id="Vector_8" d="M37.4051 63.9459H37.2968C36.9716 63.8376 36.8633 63.5124 36.9716 63.2956C37.5136 61.453 38.1639 59.9358 38.9225 58.6352C35.4542 60.8029 32.5279 63.8376 32.4196 63.8376C32.2027 64.0544 31.8776 64.0544 31.6609 63.8376C31.4441 63.6207 31.4441 63.2956 31.6609 63.0789C31.8777 62.8621 35.8878 58.852 40.2231 56.5759C42.3908 53.6496 44.6669 52.2407 44.7752 52.1322C44.992 52.0239 45.1003 52.0239 45.3172 52.0239C60.5991 52.0239 61.7914 55.6005 62.8752 58.852L63.959 63.1873C64.0673 63.5124 63.8506 63.7292 63.5255 63.8376C63.2003 63.9459 62.9835 63.7292 62.8752 63.4041L61.7914 59.0688C60.8159 56.2508 59.7321 52.9993 45.3172 52.9993H45.2088C44.7753 53.3245 43.0411 54.5167 41.1987 56.7928C41.1987 56.9011 41.0903 57.1179 40.8735 57.2262C39.6813 58.852 38.5975 60.8029 37.9472 63.4041C37.8387 63.8374 37.6219 63.9459 37.4051 63.9459ZM0.555013 63.9459H0.446672C0.121524 63.8376 0.0131836 63.6207 0.0131836 63.2956L1.09697 58.9603C2.18075 55.8172 5.3239 52.0239 14.6449 52.0239C20.2807 52.0239 25.9167 55.4922 29.1682 60.9112C29.2765 61.128 29.2765 61.4532 28.9514 61.6699C28.7346 61.7782 28.4094 61.7782 28.1928 61.453C25.0496 56.2507 19.8472 52.9992 14.5365 52.9992C7.60006 52.9992 3.37313 55.0584 2.07254 59.177L0.988756 63.5123C0.988502 63.7291 0.771821 63.9459 0.555013 63.9459ZM44.992 63.9459C44.6669 63.9459 44.45 63.7291 44.45 63.4039C44.45 63.1871 44.45 58.8519 46.7261 55.492C46.9429 55.2752 47.268 55.1669 47.4847 55.3837C47.7015 55.6005 47.8099 55.9257 47.5931 56.1423C45.5338 59.177 45.5338 63.4039 45.5338 63.4039C45.5338 63.7291 45.3172 63.9459 44.992 63.9459ZM31.9861 53.1075C19.1969 53.1075 16.2706 44.5453 15.1867 28.7214V24.3861C15.1867 22.3269 21.2562 16.2574 32.853 12.0305C32.9614 11.9222 33.0699 11.9221 33.1782 11.9221C36.8632 10.6216 41.1986 9.4293 45.9673 8.67067C46.2925 8.67067 46.5093 8.77901 46.6176 9.10415C46.6176 9.4293 46.5093 9.64611 46.1841 9.75445C44.8835 9.97126 43.6913 10.1879 42.4992 10.4047C44.992 11.4885 49.3273 13.9814 50.953 18.7503C51.0614 19.0754 50.8447 19.2922 50.6279 19.4006C50.3027 19.5089 50.0859 19.2922 49.9776 19.0754C48.0267 13.2227 41.4154 11.055 40.6566 10.7299C38.7057 11.1634 36.9716 11.7053 35.2374 12.2473C44.6667 14.8485 48.8937 21.8934 48.8937 24.2778V28.6131C47.7015 44.5453 44.7752 53.1075 31.9861 53.1075ZM17.2459 37.3921C19.0885 48.2303 23.3154 52.0237 31.9859 52.0237C40.6565 52.0237 44.8835 48.2303 46.726 37.3921C44.2331 39.343 40.0062 41.077 39.7895 41.1855C39.6812 41.2938 39.4644 41.1855 39.356 41.1855C39.2477 41.0772 39.1392 40.9687 39.0309 40.8604C39.0309 40.8604 37.9471 35.8748 35.2374 35.8748H28.7345C25.9165 35.8748 24.941 40.8604 24.941 40.8604C24.941 40.9687 24.8327 41.1855 24.6159 41.1855C24.5075 41.2938 24.2907 41.2938 24.1824 41.1855C23.9657 41.077 19.7388 39.343 17.2459 37.3921ZM28.7346 34.6825H35.2376C38.1639 34.6825 39.5728 38.3675 39.898 39.8849C41.3069 39.2346 45.1003 37.6089 46.7261 35.8748C46.8344 35.7665 46.8344 35.7665 46.9429 35.7665C47.268 33.5988 47.4848 31.3227 47.7015 28.6132V24.2779C47.7015 22.2187 43.3663 15.0654 33.2867 12.8977C21.7981 17.0163 16.2706 22.7605 16.2706 24.2779V28.6132C16.4874 31.2144 16.7041 33.5988 17.0292 35.6581C17.1376 35.6581 17.1376 35.7665 17.246 35.7665C18.8718 37.3922 22.6652 39.1263 24.0742 39.7766C24.3992 38.3675 25.8082 34.6825 28.7346 34.6825ZM34.1536 40.1016H29.8184C29.4932 40.1016 29.2764 39.8848 29.2764 39.5596C29.2764 39.2345 29.4932 39.0177 29.8184 39.0177H34.1536C34.4788 39.0177 34.6956 39.2345 34.6956 39.5596C34.6956 39.8849 34.4788 40.1016 34.1536 40.1016ZM11.9352 31.4311C11.7184 31.4311 11.6101 31.3227 11.5017 31.2142C11.3934 30.9974 8.68372 26.6622 8.68372 20.0509C8.68372 9.10416 16.9208 2.05923 31.8776 0H31.9859C46.9428 1.95089 55.1798 9.10416 55.1798 20.0509C55.1798 26.6622 52.4703 30.9976 52.3618 31.2142C52.2535 31.4311 51.8199 31.5394 51.6032 31.4311C51.3864 31.3227 51.278 30.8891 51.3864 30.6724C51.3864 30.6724 53.9876 26.3371 53.9876 20.0509C53.9876 12.8976 50.4109 7.58688 43.4745 4.3354H43.3661C26.4585 6.50297 17.1376 18.1 17.0292 18.2083C16.8124 18.4251 16.4873 18.5335 16.2706 18.3167C16.0538 18.0998 15.9455 17.7747 16.1623 17.558C16.2706 17.4497 25.2664 6.17782 41.6322 3.46829C38.8142 2.38451 35.5627 1.5174 31.7694 1.08391C17.2459 3.03468 9.5507 9.64598 9.5507 20.0507C9.5507 26.3369 12.1519 30.5638 12.1519 30.5638C12.2602 30.7806 12.2602 31.1058 11.9351 31.3225C12.152 31.4311 12.0435 31.4311 11.9352 31.4311ZM38.489 26.0119C38.1639 26.0119 37.9471 25.7951 37.9471 25.4699V24.7113L36.3213 24.6029C35.9962 24.6029 35.7794 24.2778 35.7794 24.061C35.7794 23.7358 35.9962 23.519 36.3213 23.519L38.489 23.6274L40.6567 23.7357C40.9819 23.7357 41.1987 24.0609 41.1987 24.2777C41.1987 24.6028 40.9819 24.8196 40.6567 24.8196L39.031 24.7113V25.3616C39.0309 25.7951 38.8142 26.0119 38.489 26.0119ZM25.4831 26.0119C25.158 26.0119 24.9411 25.7951 24.9411 25.4699V24.8196L23.3154 24.928C22.9903 24.928 22.7734 24.7111 22.7734 24.386C22.7734 24.0609 22.9903 23.844 23.3154 23.844L25.4831 23.7357L27.6508 23.6274C27.9759 23.6274 28.1928 23.8442 28.1928 24.1693C28.1928 24.4945 27.9759 24.7113 27.6508 24.7113L26.0251 24.8196V25.5783C26.0249 25.7951 25.8082 26.0119 25.4831 26.0119Z" fill="#51565F"/>
</g>
</g>
<defs>
<clipPath id="clip0_155_400">
<rect width="64" height="64" fill="white"/>
</clipPath>
</defs>
</svg>
