<svg width="18" height="17" viewBox="0 0 18 17" fill="none" xmlns="http://www.w3.org/2000/svg">
<path id="Vector 3" d="M9.71611 12.6466V12.6466C8.36501 10.5308 6.02797 9.25022 3.51751 9.25022H2.54784C1.69745 9.25022 1.01233 9.94757 1.02736 10.7978L1.07339 13.4008C1.1008 14.9509 2.37633 16.1931 3.92665 16.1931V16.1931C8.84084 16.1931 13.5443 14.0621 16.7663 10.3515L16.9292 10.1638C16.9628 10.1252 16.9459 10.0648 16.8973 10.0491V10.0491C15.3411 9.54687 13.6388 9.81545 12.3129 10.7724L9.71611 12.6466ZM9.71611 12.6466H4.4237M13.6463 1.49465V1.49465C13.9567 1.75932 14.1356 2.14675 14.1356 2.55469V2.65686C14.1356 3.06353 13.9821 3.45521 13.7058 3.75363L10.6946 7.00622C10.6231 7.08338 10.501 7.08291 10.4301 7.00521L7.42984 3.71417C7.18072 3.44091 7.04263 3.08447 7.04263 2.7147V2.7147C7.04263 2.21375 7.29544 1.74663 7.71484 1.47267L7.75492 1.44648C8.33606 1.06687 9.09739 1.11334 9.62804 1.56083L10.5363 2.32679C10.5514 2.33949 10.5731 2.34064 10.5894 2.3296L11.9618 1.40094C12.4805 1.04995 13.1697 1.08829 13.6463 1.49465Z" stroke="#334155" stroke-linecap="round"/>
</svg>
